HIERARCHY
ROOT Hips
{
	OFFSET 0.000000 0.000000 0.000000
	CHANNELS 6 Xposition Yposition Zposition Xrotation Yrotation Zrotation
	JOINT LeftUpLeg_virtual
	{
		OFFSET 0.000000 0.000000 0.000000
		CHANNELS 3 Xrotation Yrotation Zrotation
		JOINT LeftUpLeg
		{
			OFFSET 13.026900 -6.336304 -1.092800
			CHANNELS 3 Xrotation Yrotation Zrotation
			JOINT LeftLeg
			{
				OFFSET 0.524474 -46.096886 9.782700
				CHANNELS 3 Xrotation Yrotation Zrotation
				JOINT LeftFoot
				{
					OFFSET -0.524474 -53.427422 -12.948200
					CHANNELS 3 Xrotation Yrotation Zrotation
					JOINT LeftToeBase
					{
						OFFSET 0.192200 -14.009700 16.364100
						CHANNELS 3 Xrotation Yrotation Zrotation
						JOINT LeftToe_End
						{
							OFFSET -1.784700 -0.561700 9.474800
							CHANNELS 3 Xrotation Yrotation Zrotation
							End Site
							{
								OFFSET 0 0 0
							}
						}
					}
				}
			}
		}
	}
	JOINT RightUpLeg_virtual
	{
		OFFSET 0.000000 0.000000 0.000000
		CHANNELS 3 Xrotation Yrotation Zrotation
		JOINT RightUpLeg
		{
			OFFSET -12.883000 -6.336304 -1.092800
			CHANNELS 3 Xrotation Yrotation Zrotation
			JOINT RightLeg
			{
				OFFSET -0.524587 -46.096825 9.782800
				CHANNELS 3 Xrotation Yrotation Zrotation
				JOINT RightFoot
				{
					OFFSET 0.524587 -53.427383 -12.948300
					CHANNELS 3 Xrotation Yrotation Zrotation
					JOINT RightToeBase
					{
						OFFSET -0.192200 -14.009700 16.364100
						CHANNELS 3 Xrotation Yrotation Zrotation
						JOINT RightToe_End
						{
							OFFSET 1.784700 -0.561700 9.474800
							CHANNELS 3 Xrotation Yrotation Zrotation
							End Site
							{
								OFFSET 0 0 0
							}
						}
					}
				}
			}
		}
	}
	JOINT Spine_virtual
	{
		OFFSET 0.000000 0.000000 0.000000
		CHANNELS 3 Xrotation Yrotation Zrotation
		JOINT Spine
		{
			OFFSET 0.072000 7.257294 -0.789700
			CHANNELS 3 Xrotation Yrotation Zrotation
			JOINT Spine1
			{
				OFFSET 0.000000 12.508769 -0.658067
				CHANNELS 3 Xrotation Yrotation Zrotation
				JOINT Spine1_split
				{
					OFFSET 0.000000 12.508769 -0.658067
					CHANNELS 3 Xrotation Yrotation Zrotation
					JOINT Spine2
					{
						OFFSET 0.000000 12.508769 -0.658067
						CHANNELS 3 Xrotation Yrotation Zrotation
						JOINT Neck_virtual
						{
							OFFSET 0.000000 0.000000 0.000000
							CHANNELS 3 Xrotation Yrotation Zrotation
							JOINT Neck
							{
								OFFSET 0.000000 14.033295 7.520400
								CHANNELS 3 Xrotation Yrotation Zrotation
								JOINT Head
								{
									OFFSET 0.000000 8.198502 5.703100
									CHANNELS 3 Xrotation Yrotation Zrotation
									JOINT HeadTop_End
									{
										OFFSET 0.000000 17.760803 13.332701
										CHANNELS 3 Xrotation Yrotation Zrotation
										End Site
										{
											OFFSET 0 0 0
										}
									}
								}
							}
						}
						JOINT LeftShoulder_virtual
						{
							OFFSET 0.000000 0.000000 0.000000
							CHANNELS 3 Xrotation Yrotation Zrotation
							JOINT LeftShoulder
							{
								OFFSET 6.292450 5.785301 -0.669000
								CHANNELS 3 Xrotation Yrotation Zrotation
								JOINT LeftShoulder_split
								{
									OFFSET 6.292450 5.785301 -0.669000
									CHANNELS 3 Xrotation Yrotation Zrotation
									JOINT LeftArm
									{
										OFFSET 13.907140 -6.093903 1.965100
										CHANNELS 3 Xrotation Yrotation Zrotation
										JOINT LeftForeArm
										{
											OFFSET 34.140198 0.000000 0.000000
											CHANNELS 3 Xrotation Yrotation Zrotation
											JOINT LeftHand
											{
												OFFSET 40.960209 0.000000 0.000000
												CHANNELS 3 Xrotation Yrotation Zrotation
												End Site
												{
													OFFSET 0 0 0
												}
											}
										}
									}
								}
							}
						}
						JOINT RightShoulder_virtual
						{
							OFFSET 0.000000 0.000000 0.000000
							CHANNELS 3 Xrotation Yrotation Zrotation
							JOINT RightShoulder
							{
								OFFSET -6.292450 5.785301 -0.669000
								CHANNELS 3 Xrotation Yrotation Zrotation
								JOINT RightShoulder_split
								{
									OFFSET -6.292450 5.785301 -0.669000
									CHANNELS 3 Xrotation Yrotation Zrotation
									JOINT RightArm
									{
										OFFSET -13.907140 -6.093903 1.965100
										CHANNELS 3 Xrotation Yrotation Zrotation
										JOINT RightForeArm
										{
											OFFSET -34.140198 0.000000 0.000000
											CHANNELS 3 Xrotation Yrotation Zrotation
											JOINT RightHand
											{
												OFFSET -40.960209 0.000000 0.000000
												CHANNELS 3 Xrotation Yrotation Zrotation
												End Site
												{
													OFFSET 0 0 0
												}
											}
										}
									}
								}
							}
						}
					}
				}
			}
		}
	}
}
MOTION
Frames: 10
Frame Time: 0.03333333
9.720258 104.108772 1.772121 0.000000 0.000000 0.000000 7.675712 -12.575010 -1.598538 -39.699494 5.096422 14.531618 48.604535 10.127279 -0.634598 -14.780145 4.163248 -8.620630 -3.075512 -2.348359 -2.459407 0.000000 0.000000 0.000000 7.675712 -12.575010 -1.598538 -26.902076 -7.265989 -14.683098 47.268027 -7.107161 -3.693000 -10.570904 -0.881393 12.701780 -14.272389 -2.388011 5.487252 0.000000 0.000000 0.000000 7.675712 -12.575010 -1.598538 12.185513 3.531271 -0.630541 8.547020 6.722060 -1.512190 0.000000 0.000000 0.000000 0.000000 0.000000 0.000000 -3.408235 6.901167 -0.063846 -1.053641 -3.761028 2.184397 -5.982008 4.507761 3.913931 0.000000 0.000000 0.000000 -3.408235 6.901167 -0.063846 -1.721884 -5.625956 -0.861950 0.000000 0.000000 0.000000 -9.809315 -3.483229 -61.749650 -12.683621 -28.217832 -4.423323 0.000000 0.000000 0.000000 -3.408235 6.901167 -0.063846 5.552873 -18.831827 2.973356 0.000000 0.000000 0.000000 39.568259 52.456594 11.456155 15.406275 28.844343 12.492176 0.000000 0.000000 0.000000 
9.972303 105.417091 1.612267 0.000000 0.000000 0.000000 7.712783 -12.825348 -2.090530 -38.724048 5.691035 14.683452 46.293458 9.960358 -0.300090 -13.816808 4.175078 -8.242905 -3.075523 -2.348393 -2.459425 0.000000 0.000000 0.000000 7.712783 -12.825348 -2.090530 -25.568134 -7.831862 -13.488973 42.909359 -6.386786 -3.408509 -12.546121 0.108149 13.377815 -8.843849 -2.898034 4.936623 0.000000 0.000000 0.000000 7.712783 -12.825348 -2.090530 12.043147 3.503045 -0.369082 8.235420 6.693140 -1.358526 0.000000 0.000000 0.000000 0.000000 0.000000 0.000000 -3.710610 6.857831 0.094729 -1.458324 -3.264163 1.331756 -5.486253 4.125540 4.660446 0.000000 0.000000 0.000000 -3.710610 6.857831 0.094729 -1.716034 -4.454584 -0.893411 0.000000 0.000000 0.000000 -9.717396 -3.541833 -62.272269 -11.923617 -27.096115 -3.494378 0.000000 0.000000 0.000000 -3.710610 6.857831 0.094729 5.098995 -17.776590 2.830946 0.000000 0.000000 0.000000 31.146807 51.316857 16.165651 17.702689 22.785040 11.883002 0.000000 0.000000 0.000000 
10.254150 106.548660 1.324394 0.000000 0.000000 0.000000 7.736949 -13.090472 -2.581558 -37.845392 5.727710 14.859510 44.315005 10.295992 -0.242607 -12.857027 4.071745 -8.022645 -3.075489 -2.348384 -2.459418 0.000000 0.000000 0.000000 7.736949 -13.090472 -2.581558 -24.456845 -8.423215 -12.405182 38.617883 -5.879329 -3.361499 -13.811507 1.098868 13.923250 -4.406076 -3.051686 6.171535 0.000000 0.000000 0.000000 7.736949 -13.090472 -2.581558 11.895317 3.491957 -0.081726 7.915924 6.670847 -1.209775 0.000000 0.000000 0.000000 0.000000 0.000000 0.000000 -4.021070 6.836050 0.250615 -1.840857 -2.854065 0.319121 -4.930052 3.603732 5.350208 0.000000 0.000000 0.000000 -4.021070 6.836050 0.250615 -1.693599 -3.827968 -1.241114 0.000000 0.000000 0.000000 -9.593853 -3.482807 -62.535013 -11.037046 -26.271938 -2.727136 0.000000 0.000000 0.000000 -4.021070 6.836050 0.250615 4.610793 -16.271288 2.746253 0.000000 0.000000 0.000000 24.194366 47.069159 21.401093 20.960199 21.627924 10.737944 0.000000 0.000000 0.000000 
10.497189 107.440651 1.133286 0.000000 0.000000 0.000000 7.709875 -13.166721 -3.059993 -37.140540 5.813559 15.112005 42.752394 10.295941 -0.304192 -12.134961 3.984659 -7.682558 -3.075507 -2.348388 -2.459412 0.000000 0.000000 0.000000 7.709875 -13.166721 -3.059993 -23.602808 -9.121546 -11.217622 34.939867 -3.582970 -3.499185 -14.273501 0.073668 13.664664 -2.094435 -3.284913 5.374504 0.000000 0.000000 0.000000 7.709875 -13.166721 -3.059993 11.748895 3.481263 0.199811 7.597629 6.639437 -1.064228 0.000000 0.000000 0.000000 0.000000 0.000000 0.000000 -4.329984 6.793161 0.400625 -2.097905 -2.467596 -0.485375 -4.703817 3.176678 5.961101 0.000000 0.000000 0.000000 -4.329984 6.793161 0.400625 -1.684018 -3.655043 -1.369009 0.000000 0.000000 0.000000 -9.364247 -3.313603 -62.863292 -10.281031 -25.321784 -1.958485 0.000000 0.000000 0.000000 -4.329984 6.793161 0.400625 4.022904 -14.699896 2.630177 0.000000 0.000000 0.000000 18.984040 43.625470 27.206255 21.850422 20.601126 9.208948 0.000000 0.000000 0.000000 
10.583091 108.199867 1.039101 0.000000 0.000000 0.000000 7.300659 -12.998875 -3.447551 -36.149551 6.218037 15.329719 41.335058 9.799209 -0.387507 -11.560586 3.923546 -7.240871 -3.075502 -2.348378 -2.459415 0.000000 0.000000 0.000000 7.300659 -12.998875 -3.447551 -22.625451 -9.066549 -10.048616 32.104498 -1.951748 -3.838204 -13.955373 -1.313589 13.536430 -1.716991 -3.079059 6.618602 0.000000 0.000000 0.000000 7.300659 -12.998875 -3.447551 11.627709 3.403504 0.429581 7.324744 6.494893 -0.931729 0.000000 0.000000 0.000000 0.000000 0.000000 0.000000 -4.590988 6.645015 0.513620 -2.350864 -2.140417 -1.082407 -4.321780 2.812427 6.500075 0.000000 0.000000 0.000000 -4.590988 6.645015 0.513620 -1.686311 -3.491242 -1.306876 0.000000 0.000000 0.000000 -9.128484 -3.161149 -63.281532 -9.621725 -24.665331 -1.360187 0.000000 0.000000 0.000000 -4.590988 6.645015 0.513620 3.436046 -12.677617 2.720371 0.000000 0.000000 0.000000 14.843972 39.461087 33.241219 22.083622 20.411399 7.131024 0.000000 0.000000 0.000000 
10.460794 108.961441 1.054676 0.000000 0.000000 0.000000 6.507925 -12.456025 -3.817698 -34.698495 6.668207 15.391198 39.806110 8.921427 -0.391932 -10.979232 3.973431 -6.812459 -3.075507 -2.348389 -2.459411 0.000000 0.000000 0.000000 6.507925 -12.456025 -3.817698 -21.415525 -8.429817 -9.404273 30.094452 -3.152746 -3.950404 -13.733983 -0.889612 14.180776 -1.287559 -1.373556 5.867417 0.000000 0.000000 0.000000 6.507925 -12.456025 -3.817698 11.547962 3.260988 0.599933 7.121378 6.275668 -0.751660 0.000000 0.000000 0.000000 0.000000 0.000000 0.000000 -4.781025 6.413116 0.656969 -2.346671 -1.940745 -1.582422 -4.023493 2.365327 7.157913 0.000000 0.000000 0.000000 -4.781025 6.413116 0.656969 -1.683973 -3.311989 -1.311699 0.000000 0.000000 0.000000 -9.066534 -3.203672 -63.661830 -8.896718 -23.916152 -0.825319 0.000000 0.000000 0.000000 -4.781025 6.413116 0.656969 2.823420 -10.771067 2.883931 0.000000 0.000000 0.000000 11.686291 34.989898 39.226299 20.903478 20.431842 5.441435 0.000000 0.000000 0.000000 
10.192054 109.591377 1.183102 0.000000 0.000000 0.000000 5.825926 -11.748115 -3.921634 -33.294901 6.929057 15.054065 38.388696 8.177525 -0.187611 -10.443445 4.139880 -6.635040 -3.075544 -2.348394 -2.459418 0.000000 0.000000 0.000000 5.825926 -11.748115 -3.921634 -20.283509 -7.323728 -8.621849 28.700018 -4.738327 -4.640846 -14.377647 -1.340742 15.736479 -1.386922 -1.056272 5.607919 0.000000 0.000000 0.000000 5.825926 -11.748115 -3.921634 11.445433 3.105660 0.716068 6.871407 6.046715 -0.607234 0.000000 0.000000 0.000000 0.000000 0.000000 0.000000 -5.017912 6.177902 0.762653 -2.262842 -1.908073 -2.185224 -3.777332 1.709236 7.965337 0.000000 0.000000 0.000000 -5.017912 6.177902 0.762653 -1.665088 -3.105137 -1.529663 0.000000 0.000000 0.000000 -9.143977 -3.384157 -63.951170 -8.306454 -23.428123 -0.465744 0.000000 0.000000 0.000000 -5.017912 6.177902 0.762653 2.183741 -8.911540 3.004669 0.000000 0.000000 0.000000 9.669396 30.271562 44.918664 18.140940 20.668644 4.430791 0.000000 0.000000 0.000000 
9.722733 110.069183 1.421169 0.000000 0.000000 0.000000 5.004844 -11.280577 -3.895046 -31.718934 7.141454 14.675068 37.220791 7.672532 0.166649 -10.063050 4.413755 -6.800712 -3.075534 -2.348356 -2.459415 0.000000 0.000000 0.000000 5.004844 -11.280577 -3.895046 -19.153309 -6.365989 -7.849205 27.716621 -4.799571 -5.179411 -14.177150 -2.765144 16.852085 -1.494469 -0.985244 5.533832 0.000000 0.000000 0.000000 5.004844 -11.280577 -3.895046 11.360811 3.002441 0.797270 6.662425 5.930122 -0.510392 0.000000 0.000000 0.000000 0.000000 0.000000 0.000000 -5.216857 6.061062 0.844169 -2.198541 -1.983300 -2.895914 -3.342758 0.921943 8.784422 0.000000 0.000000 0.000000 -5.216857 6.061062 0.844169 -1.626243 -2.900658 -1.982237 0.000000 0.000000 0.000000 -9.221897 -3.555624 -64.215629 -7.940963 -23.082249 -0.206255 0.000000 0.000000 0.000000 -5.216857 6.061062 0.844169 1.514005 -7.244173 3.121623 0.000000 0.000000 0.000000 8.638244 25.595260 50.012407 15.308641 21.394442 3.395842 0.000000 0.000000 0.000000 
9.170546 110.610916 1.697487 0.000000 0.000000 0.000000 4.286278 -11.142012 -3.605223 -29.979777 7.551532 14.252078 35.802154 7.066223 0.350923 -9.625471 4.959937 -6.925371 -3.075531 -2.348366 -2.459427 0.000000 0.000000 0.000000 4.286278 -11.142012 -3.605223 -18.081503 -5.830963 -7.503064 26.808489 -5.859806 -5.523970 -12.928348 -2.692399 16.819187 -1.798769 -0.562362 5.158639 0.000000 0.000000 0.000000 4.286278 -11.142012 -3.605223 11.246683 2.914789 0.779535 6.401188 5.854621 -0.550669 0.000000 0.000000 0.000000 0.000000 0.000000 0.000000 -5.469410 6.010992 0.798893 -1.939187 -2.034813 -3.502359 -2.992125 0.227225 9.509893 0.000000 0.000000 0.000000 -5.469410 6.010992 0.798893 -1.603650 -2.502510 -2.189663 0.000000 0.000000 0.000000 -9.175684 -3.656379 -64.764509 -7.733305 -22.858133 -0.055205 0.000000 0.000000 0.000000 -5.469410 6.010992 0.798893 0.882251 -5.515089 3.366801 0.000000 0.000000 0.000000 8.325348 20.822940 54.564298 12.793255 22.200236 2.392414 0.000000 0.000000 0.000000 
8.652693 111.240746 1.883556 0.000000 0.000000 0.000000 3.799101 -10.970638 -3.262357 -28.413326 8.035484 13.901959 34.135974 6.683173 0.407426 -9.014737 5.101805 -7.007826 -3.075548 -2.348357 -2.459416 0.000000 0.000000 0.000000 3.799101 -10.970638 -3.262357 -16.848916 -6.437134 -8.043613 25.388025 -5.722946 -4.995435 -11.335817 -2.020308 16.309828 -2.493485 -0.274851 4.533530 0.000000 0.000000 0.000000 3.799101 -10.970638 -3.262357 11.085103 2.826185 0.773812 6.049151 5.756718 -0.590839 0.000000 0.000000 0.000000 0.000000 0.000000 0.000000 -5.812795 5.937217 0.747832 -1.679814 -2.103830 -4.051903 -2.428144 -0.428834 10.198237 0.000000 0.000000 0.000000 -5.812795 5.937217 0.747832 -1.581685 -2.228634 -2.402152 0.000000 0.000000 0.000000 -8.976542 -3.562173 -65.265306 -7.577437 -22.751715 0.013609 0.000000 0.000000 0.000000 -5.812795 5.937217 0.747832 0.287391 -3.809689 3.493065 0.000000 0.000000 0.000000 8.365683 16.000666 58.734040 10.317578 22.742389 1.637590 0.000000 0.000000 0.000000 
